<svg id="Warstwa_2" data-name="Warstwa 2"
    xmlns="http://www.w3.org/2000/svg" viewBox="0 0 1821.18212 897.28388">
    <defs>
        <style>.cls-1{fill:#2bb673;}.cls-2{fill:#726658;}.cls-3{fill:#8b5e3c;}.cls-4{fill:#fff;}.cls-5{fill:#bcbec0;}.cls-6{fill:#f1f2f2;}.cls-7{fill:none;}.tire{fill:#231f20;}.motorcycle{fill:#ec008c;}.helmet{fill:#fff200;}.dust{fill:#3c2415;opacity:0.4;}</style>
    </defs>
    <title>speedway_2</title>
    <g id="track_background">
        <rect class="cls-1" x="0.25" y="-0.5" width="1821.18212" height="897.28388"/>
        <path class="cls-2" d="M1295.05493,812.01181c-.5,0-.99951-.00439-1.499-.00879l-.666-.00537H528.79223l-.66553.00537c-.49951.00439-.999.00879-1.5.00879a334.41172,334.41172,0,0,1-136.05225-28.71045,347.27287,347.27287,0,0,1-110.89893-78.1333,363.91656,363.91656,0,0,1-74.59766-115.63135,379.538,379.538,0,0,1,0-282.78955,363.91656,363.91656,0,0,1,74.59766-115.63135,347.27287,347.27287,0,0,1,110.89893-78.1333A334.41172,334.41172,0,0,1,526.6267,84.27207h768.42822a334.41569,334.41569,0,0,1,136.05273,28.71045,347.27088,347.27088,0,0,1,110.89844,78.1333,363.90954,363.90954,0,0,1,74.59814,115.63135,379.538,379.538,0,0,1,0,282.78955,363.90954,363.90954,0,0,1-74.59814,115.63135,347.27088,347.27088,0,0,1-110.89844,78.1333A334.41569,334.41569,0,0,1,1295.05493,812.01181ZM528.658,777.99765l765.20605.00684c.397.00342.79395.00732,1.19092.00732,173.62012,0,314.87061-147.979,314.87061-329.87012,0-181.89062-141.25049-329.86963-314.87061-329.86963H526.6267c-173.62012,0-314.87012,147.979-314.87012,329.86963,0,181.89111,141.25,329.87012,314.87012,329.87012.39795,0,.79492-.00391,1.19141-.00732Z"/>
        <path class="cls-3" d="M1295.05517,101.27228H526.62689c-183.287,0-331.87042,155.29883-331.87042,346.86963S343.3399,795.0116,526.62689,795.0116c.69592,0,1.38977-.00934,2.08472-.01379h764.25885c.69507.00446,1.38892.01379,2.08472.01379,183.28711,0,331.87048-155.29883,331.87048-346.86969S1478.34228,101.27228,1295.05517,101.27228Zm-85.031,551.2464c-.54175,0-1.082-.00549-1.62329-.00812H613.28124c-.54114.00262-1.08148.00812-1.62335.00812-142.72351,0-258.42371-91.50256-258.42371-204.37677s115.7002-204.37677,258.42371-204.37677h598.36627c142.72363,0,258.42383,91.50262,258.42383,204.37677S1352.7478,652.51868,1210.02417,652.51868Z"/>
        <path class="cls-4" d="M1210.02417,656.01865l-1.64258-.0083H613.28149l-1.62354.0083c-69.812,0-135.479-21.52686-184.9043-60.61523-49.667-39.2793-77.01953-91.57812-77.01953-147.26172s27.35254-107.98193,77.01953-147.26123c49.42529-39.08838,115.09229-60.61523,184.9043-60.61523h598.36621c69.812,0,135.479,21.52686,184.9043,60.61523,49.667,39.2793,77.01953,91.57764,77.01953,147.26123s-27.35254,107.98242-77.01953,147.26172C1345.50317,634.4918,1279.83618,656.01865,1210.02417,656.01865Zm-596.76172-7.0083h595.13818l1.62354.0083c140.56543,0,254.92383-90.11328,254.92383-200.877s-114.3584-200.87646-254.92383-200.87646H611.658c-140.56543,0-254.92383,90.11279-254.92383,200.87646s114.3584,200.877,254.92383,200.877Z"/>
        <path class="cls-5" d="M.25-.5V896.78387H1821.43213V-.5Zm1775,801a64.18818,64.18818,0,0,1-64,64H110.43213a64.18814,64.18814,0,0,1-64-64V95.78387a64.18814,64.18814,0,0,1,64-64H1711.25a64.18818,64.18818,0,0,1,64,64Z"/>
        <rect class="cls-6" x="909.84082" y="118.27197" width="2" height="109.51172"/>
    </g>
    <g id="track">
        <path class="cls-7" d="M910.591,228.28388H602.92931c-146.76813,0-265.74719,98.65766-265.74719,220.358S456.16118,669,602.92931,669c.55726,0,1.11287-.00593,1.66935-.00876h611.98476c.55658.00283,1.11218.00876,1.66935.00876C1365.021,669,1484,570.34234,1484,448.64192s-118.979-220.358-265.74724-220.358H910.591"/>
    </g>
    <g id="player">
        <g id="back">
            <rect class="tire" x="922.50254" y="440.25274" width="6.88318" height="16.7784" rx="3.44158" ry="3.44158" transform="translate(477.30219 1374.58607) rotate(-90)"/>
            <rect class="motorcycle" x="907.14947" y="433.28887" width="6.88318" height="30.70614" transform="translate(461.94912 1359.233) rotate(-90)"/>
        </g>
        <g id="front">
            <rect class="tire" x="891.7964" y="440.25274" width="6.88318" height="16.7784" rx="3.44158" ry="3.44158" transform="translate(446.59605 1343.87993) rotate(-90)"/>
            <rect class="motorcycle" x="895.23799" y="437.6736" width="3.44159" height="21.93668"/>
        </g>
        <circle id="driver" class="helmet" cx="901.66989" cy="448.64194" r="6.4319"/>

    </g>
</svg>